<svg width="24" height="24" viewBox="0 0 24 24" fill="none" xmlns="http://www.w3.org/2000/svg">
<path d="M1.33333 24C0.955556 24 0.639111 23.872 0.384 23.616C0.128889 23.36 0.000888889 23.0436 0 22.6667V19.4333C0 19.0778 0.0666668 18.7387 0.2 18.416C0.333333 18.0933 0.522222 17.8102 0.766667 17.5667L17.6 0.766667C17.8667 0.522222 18.1613 0.333333 18.484 0.2C18.8067 0.0666668 19.1453 0 19.5 0C19.8547 0 20.1991 0.0666668 20.5333 0.2C20.8676 0.333333 21.1564 0.533333 21.4 0.8L23.2333 2.66667C23.5 2.91111 23.6942 3.2 23.816 3.53333C23.9378 3.86667 23.9991 4.2 24 4.53333C24 4.88889 23.9387 5.228 23.816 5.55067C23.6933 5.87333 23.4991 6.16756 23.2333 6.43333L6.43333 23.2333C6.18889 23.4778 5.90533 23.6667 5.58267 23.8C5.26 23.9333 4.92133 24 4.56667 24H1.33333ZM19.4667 6.4L21.3333 4.53333L19.4667 2.66667L17.6 4.53333L19.4667 6.4Z" fill="white"/>
</svg>
