<svg width="24" height="27" viewBox="0 0 24 27" fill="none" xmlns="http://www.w3.org/2000/svg">
<path opacity="0.5" d="M8.06933 3.33203C8 4.1027 8 5.0707 8 6.2947V20.3694C8 21.5934 8 22.5614 8.06933 23.332H6.66667C3.524 23.332 1.952 23.332 0.976 22.356C1.58946e-07 21.3787 0 19.808 0 16.6654V9.9987C0 6.85603 1.58946e-07 5.28403 0.976 4.30803C1.952 3.33203 3.524 3.33203 6.66667 3.33203H8.06933Z" fill="white"/>
<path fill-rule="evenodd" clip-rule="evenodd" d="M8.94267 0.543951C8 1.37995 8 2.90928 8 5.96662V20.6973C8 23.7546 8 25.284 8.94267 26.12C9.88533 26.956 11.3267 26.7053 14.2093 26.2026L17.316 25.6613C20.508 25.104 22.104 24.8253 23.052 23.6546C24 22.4826 24 20.7893 24 17.4013V9.26262C24 5.87595 24 4.18262 23.0533 3.01062C22.104 1.83995 20.5067 1.56129 17.3147 1.00529L14.2107 0.462618C11.328 -0.0400485 9.88667 -0.290715 8.944 0.545285M13.0013 11.9386C13.0013 11.36 12.5533 10.892 12.0013 10.892C11.4493 10.892 11.0013 11.36 11.0013 11.9373V14.7293C11.0013 15.3066 11.4493 15.7746 12.0013 15.7746C12.5533 15.7746 13.0013 15.3066 13.0013 14.7293V11.9386Z" fill="white"/>
</svg>
