<svg width="27" height="24" viewBox="0 0 27 24" fill="none" xmlns="http://www.w3.org/2000/svg">
<path d="M1.81097 6.00098C5.53892 0.262541 13.7931 -1.70398 20.2489 1.60974C22.8071 2.922 24.8104 4.94389 25.9516 7.36537C27.0929 9.78684 27.3091 12.4742 26.5671 15.0154C26.1584 16.4152 24.2404 16.8094 23.1503 15.8678L23.0282 15.7536L20.1345 12.7975C18.8451 11.4812 20.1653 9.49523 22.0345 9.79461L22.2054 9.82889L22.8713 9.982C22.3694 8.14324 21.1971 6.5038 19.5371 5.31939C17.8771 4.13498 15.8227 3.47218 13.6945 3.43438C11.5663 3.39657 9.48385 3.98588 7.77193 5.11039C6.06002 6.23491 4.81489 7.83139 4.23075 9.65087C3.64662 11.4703 3.75631 13.4105 4.54273 15.1687C5.32915 16.927 6.74807 18.4045 8.5782 19.3708C10.4083 20.337 12.5468 20.7378 14.66 20.5105C16.7732 20.2832 18.7424 19.4407 20.2605 18.1143C20.441 17.9565 20.6548 17.8317 20.8895 17.7473C21.1243 17.6629 21.3755 17.6204 21.6287 17.6223C21.882 17.6241 22.1323 17.6703 22.3655 17.7581C22.5987 17.846 22.8101 17.9738 22.9877 18.1343C23.1653 18.2948 23.3056 18.4848 23.4005 18.6935C23.4955 18.9022 23.5433 19.1254 23.5412 19.3505C23.5391 19.5756 23.4872 19.7982 23.3884 20.0054C23.2895 20.2127 23.1457 20.4006 22.9652 20.5585C18.7474 24.247 12.1284 25.1497 6.75115 22.3901C0.295361 19.0764 -1.91699 11.7406 1.81097 6.00098ZM13.5 4.57265C13.9792 4.57265 14.4411 4.7312 14.796 5.01743C15.1508 5.30366 15.373 5.69705 15.4193 6.12096L15.4283 6.28664V11.2903L18.0764 13.6442C18.4275 13.9546 18.6308 14.3731 18.6443 14.8131C18.6577 15.2531 18.4802 15.6808 18.1485 16.0076C17.8169 16.3344 17.3565 16.5353 16.8628 16.5686C16.369 16.602 15.8798 16.4652 15.4964 16.1866L15.3499 16.069L12.1361 13.2123C11.8209 12.9321 11.6246 12.5634 11.5808 12.1691L11.5718 11.9999V6.28664C11.5718 5.83206 11.7749 5.3961 12.1365 5.07467C12.4982 4.75323 12.9886 4.57265 13.5 4.57265Z" fill="#FFFEFE"/>
</svg>
