<svg width="24" height="24" viewBox="0 0 24 24" fill="none" xmlns="http://www.w3.org/2000/svg">
<path d="M10.2863 18.5002H13.714L13.9015 18.5051C14.837 18.5525 15.7243 18.9451 16.3898 19.6105C17.0552 20.276 17.4478 21.1633 17.4952 22.0988L17.5001 22.2863V23.5002H16.7863V22.2853L16.7823 22.133C16.744 21.3742 16.4256 20.6542 15.8859 20.1144C15.3461 19.5747 14.6261 19.2563 13.8673 19.218L13.715 19.2141H10.2853C9.4711 19.2149 8.69009 19.5387 8.11438 20.1144C7.53873 20.6902 7.2148 21.4712 7.21399 22.2853V23.5002H6.50012V22.2863C6.50132 21.2825 6.90075 20.3203 7.61047 19.6105C8.27591 18.9451 9.16331 18.5525 10.0988 18.5051L10.2863 18.5002ZM12.0001 8.21405C13.004 8.21405 13.9669 8.61269 14.6769 9.32245C15.3868 10.0324 15.7863 10.9961 15.7863 12.0002L15.7755 12.2795C15.7274 12.9297 15.5116 13.558 15.1476 14.1027C14.7317 14.7252 14.1409 15.2107 13.4493 15.4973C12.7577 15.7838 11.9961 15.8591 11.2618 15.7131C10.5275 15.567 9.85279 15.2063 9.32336 14.6769C8.79394 14.1475 8.43332 13.4728 8.28723 12.7385C8.14116 12.0041 8.21652 11.2427 8.50305 10.551C8.78959 9.85934 9.27415 9.26768 9.89661 8.85175C10.5192 8.43577 11.2514 8.21406 12.0001 8.21405ZM12.0001 8.92792C11.1855 8.92794 10.4042 9.25231 9.82825 9.82831C9.25237 10.4043 8.92883 11.1857 8.92883 12.0002L8.93762 12.2267C8.97671 12.7543 9.15109 13.2643 9.44641 13.7062C9.7838 14.2112 10.2633 14.6046 10.8243 14.8371C11.3856 15.0696 12.0039 15.1304 12.5997 15.0119C13.1953 14.8934 13.7426 14.6014 14.172 14.1721C14.6015 13.7425 14.8943 13.1946 15.0128 12.5988C15.1313 12.0031 15.0704 11.3856 14.838 10.8244C14.6055 10.2632 14.2113 9.78397 13.7062 9.44647C13.2644 9.15128 12.755 8.97586 12.2277 8.93671L12.0001 8.92792Z" fill="white" stroke="white"/>
<path d="M22.7861 10.4512L22.6094 10.3018L12.3232 1.59766L12 1.3252L11.6768 1.59766L1.3916 10.3018L1.21387 10.4512V23.5H0.5V10.2861C0.500017 10.2343 0.51142 10.1828 0.533203 10.1357C0.544124 10.1122 0.5576 10.0898 0.573242 10.0693L0.625977 10.0137L11.7695 0.584961C11.8179 0.544046 11.8759 0.51685 11.9375 0.505859L12 0.5C12.0633 0.5 12.1255 0.516421 12.1797 0.547852L12.2305 0.584961L23.374 10.0137C23.4135 10.0471 23.445 10.0888 23.4668 10.1357C23.4777 10.1593 23.4866 10.1837 23.4922 10.209L23.5 10.2861V23.5H22.7861V10.4512Z" fill="white" stroke="white"/>
</svg>
