<svg width="24" height="25" viewBox="0 0 24 25" fill="none" xmlns="http://www.w3.org/2000/svg">
<path fill-rule="evenodd" clip-rule="evenodd" d="M11.5663 12.3945C11.7963 12.3945 12.017 12.4859 12.1797 12.6486C12.3424 12.8113 12.4337 13.0319 12.4337 13.262V14.1295H13.3012C13.5313 14.1295 13.7519 14.2209 13.9146 14.3835C14.0773 14.5462 14.1687 14.7669 14.1687 14.9969C14.1687 15.227 14.0773 15.4477 13.9146 15.6103C13.7519 15.773 13.5313 15.8644 13.3012 15.8644H12.4337V16.7319C12.4337 16.9619 12.3424 17.1826 12.1797 17.3453C12.017 17.508 11.7963 17.5994 11.5663 17.5994C11.3362 17.5994 11.1156 17.508 10.9529 17.3453C10.7902 17.1826 10.6988 16.9619 10.6988 16.7319V15.8644H9.83134C9.60127 15.8644 9.38063 15.773 9.21794 15.6103C9.05526 15.4477 8.96387 15.227 8.96387 14.9969C8.96387 14.7669 9.05526 14.5462 9.21794 14.3835C9.38063 14.2209 9.60127 14.1295 9.83134 14.1295H10.6988V13.262C10.6988 13.0319 10.7902 12.8113 10.9529 12.6486C11.1156 12.4859 11.3362 12.3945 11.5663 12.3945Z" fill="white"/>
<path fill-rule="evenodd" clip-rule="evenodd" d="M11.5061 0.25C10.4663 0.25 9.6 0.25 8.91296 0.34253C8.1866 0.439687 7.53079 0.654819 7.00453 1.18108C6.47711 1.70851 6.26198 2.36431 6.16482 3.08952C6.07229 3.77771 6.07229 4.64518 6.07229 5.68383V5.77405C3.73475 5.85039 2.3306 6.12335 1.35557 7.09954C-1.37881e-07 8.45395 0 10.6353 0 14.997C0 19.3586 -1.37881e-07 21.54 1.35557 22.8944C2.71113 24.2488 4.89137 24.25 9.25301 24.25H13.8795C18.2412 24.25 20.4226 24.25 21.777 22.8944C23.1314 21.5389 23.1325 19.3586 23.1325 14.997C23.1325 10.6353 23.1325 8.45395 21.777 7.09954C20.8019 6.12335 19.3978 5.85039 17.0602 5.77405V5.68383C17.0602 4.64518 17.0602 3.77771 16.9677 3.09067C16.8706 2.36431 16.6554 1.70851 16.128 1.18224C15.6017 0.654819 14.9459 0.439687 14.2196 0.34253C13.5325 0.25 12.6651 0.25 11.6264 0.25H11.5061ZM15.3253 5.74629V5.74398C15.3253 4.62899 15.323 3.87949 15.249 3.32084C15.1761 2.78764 15.0523 2.55863 14.902 2.40826C14.7516 2.2579 14.5226 2.13414 13.9882 2.06128C13.4307 1.98725 12.6813 1.98494 11.5663 1.98494C10.4513 1.98494 9.70178 1.98725 9.14313 2.06243C8.60993 2.13414 8.38092 2.2579 8.23055 2.40942C8.08019 2.56094 7.95643 2.78764 7.88357 3.32084C7.8107 3.87949 7.80723 4.62899 7.80723 5.74398V5.74629C8.25986 5.74475 8.74178 5.74398 9.25301 5.74398H13.8795C14.39 5.74398 14.8719 5.74475 15.3253 5.74629ZM16.1928 14.997C16.1928 16.224 15.7053 17.4008 14.8377 18.2684C13.9701 19.1361 12.7933 19.6235 11.5663 19.6235C10.3392 19.6235 9.16247 19.1361 8.29483 18.2684C7.42719 17.4008 6.93976 16.224 6.93976 14.997C6.93976 13.77 7.42719 12.5932 8.29483 11.7256C9.16247 10.8579 10.3392 10.3705 11.5663 10.3705C12.7933 10.3705 13.9701 10.8579 14.8377 11.7256C15.7053 12.5932 16.1928 13.77 16.1928 14.997Z" fill="white"/>
</svg>
