<svg width="24" height="24" viewBox="0 0 24 24" fill="none" xmlns="http://www.w3.org/2000/svg">
<path d="M7 9.33333C6.73478 9.33333 6.48043 9.43869 6.29289 9.62623C6.10536 9.81376 6 10.0681 6 10.3333C6 10.5986 6.10536 10.8529 6.29289 11.0404C6.48043 11.228 6.73478 11.3333 7 11.3333C7.26522 11.3333 7.51957 11.228 7.70711 11.0404C7.89464 10.8529 8 10.5986 8 10.3333C8 10.0681 7.89464 9.81376 7.70711 9.62623C7.51957 9.43869 7.26522 9.33333 7 9.33333ZM6 17.6667C6 17.4015 6.10536 17.1471 6.29289 16.9596C6.48043 16.772 6.73478 16.6667 7 16.6667C7.26522 16.6667 7.51957 16.772 7.70711 16.9596C7.89464 17.1471 8 17.4015 8 17.6667C8 17.9319 7.89464 18.1862 7.70711 18.3738C7.51957 18.5613 7.26522 18.6667 7 18.6667C6.73478 18.6667 6.48043 18.5613 6.29289 18.3738C6.10536 18.1862 6 17.9319 6 17.6667ZM0 4.33333C0 3.18406 0.456546 2.08186 1.2692 1.2692C2.08186 0.456546 3.18406 0 4.33333 0H19.6667C20.8159 0 21.9181 0.456546 22.7308 1.2692C23.5435 2.08186 24 3.18406 24 4.33333V19.6667C24 20.8159 23.5435 21.9181 22.7308 22.7308C21.9181 23.5435 20.8159 24 19.6667 24H4.33333C3.18406 24 2.08186 23.5435 1.2692 22.7308C0.456546 21.9181 0 20.8159 0 19.6667V4.33333ZM4 10.3333C4 10.7273 4.0776 11.1174 4.22836 11.4814C4.37913 11.8454 4.6001 12.1761 4.87868 12.4547C5.15726 12.7332 5.48797 12.9542 5.85195 13.105C6.21593 13.2557 6.60603 13.3333 7 13.3333C7.39397 13.3333 7.78407 13.2557 8.14805 13.105C8.51203 12.9542 8.84274 12.7332 9.12132 12.4547C9.3999 12.1761 9.62087 11.8454 9.77164 11.4814C9.9224 11.1174 10 10.7273 10 10.3333C10 9.53768 9.68393 8.77462 9.12132 8.21201C8.55871 7.6494 7.79565 7.33333 7 7.33333C6.20435 7.33333 5.44129 7.6494 4.87868 8.21201C4.31607 8.77462 4 9.53768 4 10.3333ZM7 14.6667C6.20435 14.6667 5.44129 14.9827 4.87868 15.5453C4.31607 16.108 4 16.871 4 17.6667C4 18.4623 4.31607 19.2254 4.87868 19.788C5.44129 20.3506 6.20435 20.6667 7 20.6667C7.79565 20.6667 8.55871 20.3506 9.12132 19.788C9.68393 19.2254 10 18.4623 10 17.6667C10 16.871 9.68393 16.108 9.12132 15.5453C8.55871 14.9827 7.79565 14.6667 7 14.6667ZM12 10.3333C12 10.8853 12.448 11.3333 13 11.3333H19C19.2652 11.3333 19.5196 11.228 19.7071 11.0404C19.8946 10.8529 20 10.5986 20 10.3333C20 10.0681 19.8946 9.81376 19.7071 9.62623C19.5196 9.43869 19.2652 9.33333 19 9.33333H13C12.7348 9.33333 12.4804 9.43869 12.2929 9.62623C12.1054 9.81376 12 10.0681 12 10.3333ZM13 16.6667C12.7348 16.6667 12.4804 16.772 12.2929 16.9596C12.1054 17.1471 12 17.4015 12 17.6667C12 17.9319 12.1054 18.1862 12.2929 18.3738C12.4804 18.5613 12.7348 18.6667 13 18.6667H19C19.2652 18.6667 19.5196 18.5613 19.7071 18.3738C19.8946 18.1862 20 17.9319 20 17.6667C20 17.4015 19.8946 17.1471 19.7071 16.9596C19.5196 16.772 19.2652 16.6667 19 16.6667H13ZM4 4.33333C4 4.88533 4.448 5.33333 5 5.33333H19C19.2652 5.33333 19.5196 5.22798 19.7071 5.04044C19.8946 4.8529 20 4.59855 20 4.33333C20 4.06812 19.8946 3.81376 19.7071 3.62623C19.5196 3.43869 19.2652 3.33333 19 3.33333H5C4.73478 3.33333 4.48043 3.43869 4.29289 3.62623C4.10536 3.81376 4 4.06812 4 4.33333Z" fill="white"/>
</svg>
