<svg width="28" height="24" viewBox="0 0 28 24" fill="none" xmlns="http://www.w3.org/2000/svg">
<path d="M7.5386 12C7.5386 11.7107 7.65206 11.4332 7.85403 11.2286C8.05599 11.024 8.32992 10.9091 8.61554 10.9091H18.308V3.81818C18.308 1.63636 16.0337 0 14.0003 0H3.7693C2.76995 0.00108288 1.81183 0.403702 1.10518 1.11952C0.398534 1.83533 0.00106902 2.80587 0 3.81818V20.1818C0.00106902 21.1941 0.398534 22.1647 1.10518 22.8805C1.81183 23.5963 2.76995 23.9989 3.7693 24H14.5387C15.5381 23.9989 16.4962 23.5963 17.2028 22.8805C17.9095 22.1647 18.307 21.1941 18.308 20.1818V13.0909H8.61554C8.32992 13.0909 8.05599 12.976 7.85403 12.7714C7.65206 12.5668 7.5386 12.2893 7.5386 12ZM27.6848 11.2289L22.3001 5.77432C22.0965 5.57837 21.8254 5.47074 21.5446 5.47438C21.2637 5.47803 20.9954 5.59265 20.7968 5.79382C20.5982 5.99498 20.4851 6.26677 20.4815 6.55124C20.4779 6.83571 20.5841 7.11034 20.7776 7.31659L24.3234 10.9091H18.308V13.0909H24.3234L20.7776 16.6834C20.6734 16.7837 20.59 16.9041 20.5325 17.0375C20.4749 17.171 20.4443 17.3147 20.4425 17.4603C20.4407 17.6059 20.4676 17.7504 20.5218 17.8853C20.5759 18.0202 20.6562 18.1427 20.7578 18.2457C20.8595 18.3486 20.9804 18.43 21.1136 18.4848C21.2468 18.5397 21.3894 18.567 21.5331 18.5651C21.6769 18.5632 21.8188 18.5323 21.9505 18.474C22.0822 18.4157 22.2011 18.3312 22.3001 18.2257L27.6848 12.7711C27.8866 12.5666 28 12.2892 28 12C28 11.7108 27.8866 11.4334 27.6848 11.2289Z" fill="white"/>
</svg>
