<svg width="25" height="24" viewBox="0 0 25 24" fill="none" xmlns="http://www.w3.org/2000/svg">
<path d="M8.75 3.78947C8.75 2.78444 9.14509 1.82058 9.84835 1.10991C10.5516 0.399247 11.5054 0 12.5 0C13.4946 0 14.4484 0.399247 15.1517 1.10991C15.8549 1.82058 16.25 2.78444 16.25 3.78947C16.25 4.7945 15.8549 5.75837 15.1517 6.46904C14.4484 7.1797 13.4946 7.57895 12.5 7.57895C11.5054 7.57895 10.5516 7.1797 9.84835 6.46904C9.14509 5.75837 8.75 4.7945 8.75 3.78947ZM20.625 1.26316C19.7962 1.26316 19.0013 1.59586 18.4153 2.18808C17.8292 2.7803 17.5 3.58353 17.5 4.42105C17.5 5.25858 17.8292 6.0618 18.4153 6.65402C19.0013 7.24624 19.7962 7.57895 20.625 7.57895C21.4538 7.57895 22.2487 7.24624 22.8347 6.65402C23.4208 6.0618 23.75 5.25858 23.75 4.42105C23.75 3.58353 23.4208 2.7803 22.8347 2.18808C22.2487 1.59586 21.4538 1.26316 20.625 1.26316ZM4.375 1.26316C3.5462 1.26316 2.75134 1.59586 2.16529 2.18808C1.57924 2.7803 1.25 3.58353 1.25 4.42105C1.25 5.25858 1.57924 6.0618 2.16529 6.65402C2.75134 7.24624 3.5462 7.57895 4.375 7.57895C5.2038 7.57895 5.99866 7.24624 6.58471 6.65402C7.17076 6.0618 7.5 5.25858 7.5 4.42105C7.5 3.58353 7.17076 2.7803 6.58471 2.18808C5.99866 1.59586 5.2038 1.26316 4.375 1.26316ZM9.53125 8.8421C8.82677 8.8421 8.15114 9.12491 7.653 9.62829C7.15485 10.1317 6.875 10.8144 6.875 11.5263V18.3158C6.875 19.8233 7.46763 21.2691 8.52252 22.3351C9.57742 23.4011 11.0082 24 12.5 24C13.9918 24 15.4226 23.4011 16.4775 22.3351C17.5324 21.2691 18.125 19.8233 18.125 18.3158V11.5263C18.125 10.8144 17.8451 10.1317 17.347 9.62829C16.8489 9.12491 16.1732 8.8421 15.4688 8.8421H9.53125ZM5.625 11.5263C5.625 10.5158 6.00125 9.59305 6.62 8.89453C6.44672 8.85961 6.27045 8.84205 6.09375 8.8421H2.65625C1.95177 8.8421 1.27614 9.12491 0.777998 9.62829C0.279854 10.1317 1.66957e-07 10.8144 1.66957e-07 11.5263V17.6842C-0.000208534 18.4477 0.195247 19.1982 0.567331 19.8627C0.939416 20.5272 1.47545 21.083 2.12322 21.4759C2.771 21.8689 3.50844 22.0856 4.26373 22.1051C5.01902 22.1245 5.76641 21.9459 6.43313 21.5867C5.90086 20.5805 5.62324 19.4568 5.625 18.3158V11.5263ZM19.375 18.3158C19.375 19.4981 19.0825 20.6116 18.5669 21.5867C19.2336 21.9459 19.981 22.1245 20.7363 22.1051C21.4916 22.0856 22.229 21.8689 22.8768 21.4759C23.5246 21.083 24.0606 20.5272 24.4327 19.8627C24.8048 19.1982 25.0002 18.4477 25 17.6842V11.5263C25 10.8144 24.7201 10.1317 24.222 9.62829C23.7239 9.12491 23.0482 8.8421 22.3438 8.8421H18.9062C18.7258 8.84253 18.5504 8.86 18.38 8.89453C19.0217 9.61762 19.3761 10.555 19.375 11.5263V18.3158Z" fill="white"/>
</svg>
