<svg width="20" height="24" viewBox="0 0 20 24" fill="none" xmlns="http://www.w3.org/2000/svg">
<path d="M13.2333 0H0V24H20V6.64364L13.2333 0ZM13.3333 10.3636C13.3333 11.2316 12.9821 12.064 12.357 12.6778C11.7319 13.2916 10.8841 13.6364 10 13.6364C9.11595 13.6364 8.2681 13.2916 7.64298 12.6778C7.01786 12.064 6.66667 11.2316 6.66667 10.3636C6.66667 9.49566 7.01786 8.66322 7.64298 8.04947C8.2681 7.43571 9.11595 7.09091 10 7.09091C10.8841 7.09091 11.7319 7.43571 12.357 8.04947C12.9821 8.66322 13.3333 9.49566 13.3333 10.3636ZM3.33333 19.6364C3.33333 18.4791 3.80159 17.3691 4.63508 16.5508C5.46858 15.7325 6.59904 15.2727 7.77778 15.2727H12.2222C13.401 15.2727 14.5314 15.7325 15.3649 16.5508C16.1984 17.3691 16.6667 18.4791 16.6667 19.6364V20.7273H3.33333V19.6364Z" fill="white"/>
</svg>
