<svg width="24" height="24" viewBox="0 0 24 24" fill="none" xmlns="http://www.w3.org/2000/svg">
<path d="M5.582 6.4186C5.582 4.71629 6.25819 3.08369 7.46182 1.87997C8.66545 0.676244 10.2979 0 12.0001 0C13.7023 0 15.3348 0.676244 16.5384 1.87997C17.742 3.08369 18.4182 4.71629 18.4182 6.4186C18.4182 8.12092 17.742 9.75352 16.5384 10.9572C15.3348 12.161 13.7023 12.8372 12.0001 12.8372C10.2979 12.8372 8.66545 12.161 7.46182 10.9572C6.25819 9.75352 5.582 8.12092 5.582 6.4186ZM11.7746 14.5239C11.8227 14.5167 11.8712 14.5126 11.9197 14.5116H12.0805C12.1296 14.5116 12.178 14.5157 12.2256 14.5239L20.3682 15.9561L20.4106 15.965C21.9108 16.3111 23.5226 17.2633 23.8362 19.1129L23.8407 19.1453L23.9679 20.1243V20.1265C24.2626 22.3691 22.4845 24 20.3849 24C20.3386 23.9992 20.2924 23.9954 20.2465 23.9888H3.61527C1.51571 23.9888 -0.263501 22.3568 0.0322896 20.1131L0.159536 19.1431L0.165116 19.1096C0.47765 17.2934 2.10283 16.2876 3.59964 15.9628L3.63201 15.9561L11.7746 14.5239Z" fill="white"/>
</svg>
