<svg width="29" height="24" viewBox="0 0 29 24" fill="none" xmlns="http://www.w3.org/2000/svg">
<path d="M0 4.5C0 3.30653 0.474106 2.16193 1.31802 1.31802C2.16193 0.474106 3.30653 0 4.5 0H24.2952C25.4887 0 26.6333 0.474106 27.4772 1.31802C28.3211 2.16193 28.7952 3.30653 28.7952 4.5V19.5C28.7952 20.6935 28.3211 21.8381 27.4772 22.682C26.6333 23.5259 25.4887 24 24.2952 24H4.5012C3.30773 24 2.16313 23.5259 1.31922 22.682C0.475306 21.8381 0.0012002 20.6935 0.0012002 19.5L0 4.5ZM5.3952 3.6C4.91781 3.6 4.45997 3.78964 4.12241 4.12721C3.78484 4.46477 3.5952 4.92261 3.5952 5.4V10.2C3.5952 10.6774 3.78484 11.1352 4.12241 11.4728C4.45997 11.8104 4.91781 12 5.3952 12H11.3952C11.8726 12 12.3304 11.8104 12.668 11.4728C13.0056 11.1352 13.1952 10.6774 13.1952 10.2V5.4C13.1952 4.92261 13.0056 4.46477 12.668 4.12721C12.3304 3.78964 11.8726 3.6 11.3952 3.6H5.3952ZM22.7952 7.8C22.7952 7.00435 22.4791 6.24129 21.9165 5.67868C21.3539 5.11607 20.5909 4.8 19.7952 4.8C18.9996 4.8 18.2365 5.11607 17.6739 5.67868C17.1113 6.24129 16.7952 7.00435 16.7952 7.8C16.7952 8.59565 17.1113 9.35871 17.6739 9.92132C18.2365 10.4839 18.9996 10.8 19.7952 10.8C20.5909 10.8 21.3539 10.4839 21.9165 9.92132C22.4791 9.35871 22.7952 8.59565 22.7952 7.8ZM14.3952 13.8V14.1C14.3952 15.4526 14.9325 16.7498 15.889 17.7062C16.8454 18.6627 18.1426 19.2 19.4952 19.2H20.0952C21.4478 19.2 22.745 18.6627 23.7014 17.7062C24.6579 16.7498 25.1952 15.4526 25.1952 14.1V13.8C25.1952 13.3226 25.0056 12.8648 24.668 12.5272C24.3304 12.1896 23.8726 12 23.3952 12H16.1952C15.7178 12 15.26 12.1896 14.9224 12.5272C14.5848 12.8648 14.3952 13.3226 14.3952 13.8Z" fill="#FFF6F6"/>
</svg>
